<svg width="360" height="167" viewBox="0 0 360 167" fill="none" xmlns="http://www.w3.org/2000/svg">
<path d="M1.37402 1V166" stroke="#F2F2F2" stroke-linecap="square"/>
<path d="M36.874 1V166" stroke="#F2F2F2" stroke-linecap="square"/>
<path d="M72.874 1V166" stroke="#F2F2F2" stroke-linecap="square"/>
<path d="M108.874 1V166" stroke="#F2F2F2" stroke-linecap="square"/>
<path d="M144.874 1V166" stroke="#F2F2F2" stroke-linecap="square"/>
<path d="M179.874 1V166" stroke="#F2F2F2" stroke-linecap="square"/>
<path d="M215.374 1V166" stroke="#303841" stroke-width="2" stroke-linecap="square" stroke-dasharray="6"/>
<path d="M215.874 1V166" stroke="#F2F2F2" stroke-linecap="square"/>
<path d="M251.874 1V166" stroke="#F2F2F2" stroke-linecap="square"/>
<path d="M287.874 1V166" stroke="#F2F2F2" stroke-linecap="square"/>
<path d="M323.874 1V166" stroke="#F2F2F2" stroke-linecap="square"/>
<path d="M358.874 1V166" stroke="#F2F2F2" stroke-linecap="square"/>
<path d="M2.37402 147L37.874 88.6016L73.374 102L109.874 147L145.874 62L181.374 81L216.874 67L252.874 149L288.874 132.5L324.874 88.6016L357.48 147" stroke="#50C474" stroke-width="2" stroke-linecap="square"/>
<path d="M1.37402 149L36.874 90.6016L72.874 41L108.874 101.617L144.874 149L180.374 73.9336L215.874 41L251.874 64L287.874 83.5L323.874 108L357.48 41" stroke="#94C3F6" stroke-width="2" stroke-linecap="square"/>
</svg>
