<svg width="21" height="19" viewBox="0 0 21 19" fill="none" xmlns="http://www.w3.org/2000/svg">
<path d="M17.5 0.5H3.5C2.08579 0.5 1.37868 0.5 0.93934 0.9122C0.5 1.3244 0.5 1.98782 0.5 3.31466V4.00448C0.5 5.04232 0.5 5.56124 0.7596 5.99142C1.0192 6.4216 1.49347 6.68858 2.44202 7.22255L5.35504 8.8624C5.99146 9.2206 6.30967 9.3998 6.53751 9.5976C7.01199 10.0095 7.30408 10.4935 7.43644 11.0872C7.5 11.3722 7.5 11.7058 7.5 12.3729V15.0424C7.5 15.952 7.5 16.4067 7.75192 16.7613C8.00385 17.1158 8.45128 17.2907 9.3462 17.6406C11.2248 18.375 12.1641 18.7422 12.8321 18.3244C13.5 17.9066 13.5 16.9519 13.5 15.0424V12.3729C13.5 11.7058 13.5 11.3722 13.5636 11.0872C13.6959 10.4935 13.988 10.0095 14.4625 9.5976C14.6903 9.3998 15.0085 9.2206 15.645 8.8624L18.558 7.22255C19.5065 6.68858 19.9808 6.4216 20.2404 5.99142C20.5 5.56124 20.5 5.04232 20.5 4.00448V3.31466C20.5 1.98782 20.5 1.3244 20.0607 0.9122C19.6213 0.5 18.9142 0.5 17.5 0.5Z" stroke="#303841"/>
</svg>
